# Blender v2.75 (sub 0) OBJ File: 'Box.blend'
# www.blender.org
mtllib Box.mtl
o Cube
v 1.000000 -1.000000 -1.000000
v 1.000000 -1.000000 1.000000
v -1.000000 -1.000000 1.000000
v -1.000000 -1.000000 -1.000000
v 1.000000 1.000000 -0.999999
v 0.999999 1.000000 1.000001
v -1.000000 1.000000 1.000000
v -1.000000 1.000000 -1.000000
vt 0.500000 0.500000
vt 0.250043 0.500000
vt 0.250043 0.250044
vt 0.999913 0.250043
vt 0.999913 0.500000
vt 0.749957 0.500000
vt 0.749957 0.250043
vt 0.749957 0.749957
vt 0.500000 0.749957
vt 0.000087 0.500000
vt 0.000087 0.250044
vt 0.500000 0.250043
vt 0.500000 0.000087
vt 0.749956 0.000087
vn 0.000000 -1.000000 0.000000
vn 0.000000 1.000000 0.000000
vn 1.000000 0.000000 0.000000
vn -0.000000 0.000000 1.000000
vn -1.000000 -0.000000 -0.000000
vn 0.000000 0.000000 -1.000000
usemtl Dice
s 1
f 2/1/1 3/2/1 4/3/1
f 8/4/2 7/5/2 6/6/2
f 5/7/3 6/6/3 2/1/3
f 6/6/4 7/8/4 3/9/4
f 3/2/5 7/10/5 8/11/5
f 1/12/6 4/13/6 8/14/6
f 1/12/1 2/1/1 4/3/1
f 5/7/2 8/4/2 6/6/2
f 1/12/3 5/7/3 2/1/3
f 2/1/4 6/6/4 3/9/4
f 4/3/5 3/2/5 8/11/5
f 5/7/6 1/12/6 8/14/6
